<?xml version="1.0" encoding="UTF-8"?>
<svg width="29px" height="24px" viewBox="0 0 29 24" version="1.1" xmlns="http://www.w3.org/2000/svg" xmlns:xlink="http://www.w3.org/1999/xlink">
    <title>Group 2</title>
    <g id="Pages" stroke="none" stroke-width="1" fill="none" fill-rule="evenodd">
        <g id="Homepage" transform="translate(-257.000000, -67.000000)" fill-rule="nonzero">
            <g id="Group-3" transform="translate(251.000000, 58.000000)">
                <g id="Group-2" transform="translate(6.837209, 9.000000)">
                    <rect id="Rectangle" fill="#445EA0" x="10.8387097" y="19.9344262" width="5.79744936" height="2.49180328"></rect>
                    <rect id="Rectangle" fill="#293D7C" x="10.8387097" y="19.9344262" width="1.00825206" height="2.49180328"></rect>
                    <path d="M19.2828207,23.715847 C19.2828207,23.8721311 19.1620679,24 19.0144812,24 L8.33435597,24 C8.18676926,24 8.0660165,23.8721311 8.0660165,23.715847 L8.0660165,22.579235 C8.0660165,22.4229508 8.18676926,22.295082 8.33435597,22.295082 L19.0144812,22.295082 C19.1620679,22.295082 19.2828207,22.4229508 19.2828207,22.579235 L19.2828207,23.715847 L19.2828207,23.715847 Z" id="Path" fill="#293D7C"></path>
                    <path d="M10.2067809,23.5846995 L10.2067809,22.4480874 C10.2067809,22.2918033 10.3210063,22.1639344 10.4606152,22.1639344 L8.44588223,22.1639344 C8.30627341,22.1639344 8.19204801,22.2918033 8.19204801,22.4480874 L8.19204801,23.5846995 C8.19204801,23.7409836 8.30627341,23.8688525 8.44588223,23.8688525 L10.4606152,23.8688525 C10.3210063,23.8688525 10.2067809,23.7409836 10.2067809,23.5846995 Z" id="Path" fill="#1A2B63"></path>
                    <path d="M0,19.3435496 C0,19.6685317 0.24037064,19.9344262 0.534156977,19.9344262 L26.8146802,19.9344262 C27.1084666,19.9344262 27.3488372,19.6685317 27.3488372,19.3435496 L27.3488372,16.7868852 L0,16.7868852 L0,19.3435496 Z" id="Path" fill="#293D7C"></path>
                    <path d="M1.08939992,19.3435496 L1.08939992,16.7868852 L0,16.7868852 L0,19.3435496 C0,19.6685317 0.247054358,19.9344262 0.549009685,19.9344262 L1.6384096,19.9344262 C1.33645428,19.9344262 1.08939992,19.6685317 1.08939992,19.3435496 Z" id="Path" fill="#1A2B63"></path>
                    <path d="M26.6913434,0 L0.657493823,0 C0.295922965,0 0,0.322563324 0,0.716826801 L0,16.9180328 L27.3488372,16.9180328 L27.3488372,0.716826801 C27.3488372,0.322563324 27.0529142,0 26.6913434,0 Z" id="Path" fill="#445EA0"></path>
                    <path d="M1.13428357,15.1818784 L1.13428357,1.60500683 C1.13428357,1.44357614 1.25621556,1.31147541 1.40527326,1.31147541 L25.9436174,1.31147541 C26.0926217,1.31147541 26.2145536,1.44357614 26.2145536,1.60500683 L26.2145536,15.1818784 C26.2145536,15.3433671 26.0926217,15.4754098 25.9436174,15.4754098 L1.40527326,15.4754098 C1.25626906,15.4754098 1.13428357,15.3433671 1.13428357,15.1818784 Z" id="Path" fill="#000000"></path>
                </g>
            </g>
        </g>
    </g>
</svg>